<?xml version="1.0" encoding="UTF-8" standalone="no"?>
<!-- Created with Inkscape (http://www.inkscape.org/) -->

<svg
   width="60.000092mm"
   height="28.369719mm"
   viewBox="0 0 60.000092 28.369719"
   version="1.1"
   id="svg849"
   inkscape:version="1.2.2 (b0a8486541, 2022-12-01)"
   sodipodi:docname="logo-purple.svg"
   xmlns:inkscape="http://www.inkscape.org/namespaces/inkscape"
   xmlns:sodipodi="http://sodipodi.sourceforge.net/DTD/sodipodi-0.dtd"
   xmlns="http://www.w3.org/2000/svg"
   xmlns:svg="http://www.w3.org/2000/svg">
  <sodipodi:namedview
     id="namedview851"
     pagecolor="#ffffff"
     bordercolor="#666666"
     borderopacity="1.0"
     inkscape:pageshadow="2"
     inkscape:pageopacity="0.0"
     inkscape:pagecheckerboard="0"
     inkscape:document-units="mm"
     showgrid="false"
     inkscape:zoom="1.9522093"
     inkscape:cx="183.89422"
     inkscape:cy="83.239026"
     inkscape:window-width="2560"
     inkscape:window-height="1389"
     inkscape:window-x="0"
     inkscape:window-y="0"
     inkscape:window-maximized="1"
     inkscape:current-layer="layer1"
     inkscape:showpageshadow="2"
     inkscape:deskcolor="#d1d1d1" />
  <defs
     id="defs846">
    <clipPath
       clipPathUnits="userSpaceOnUse"
       id="clipPath16">
      <path
         d="M 0,850.39 H 992.13 V 0 H 0 Z"
         id="path14" />
    </clipPath>
  </defs>
  <g
     inkscape:label="Layer 1"
     inkscape:groupmode="layer"
     id="layer1"
     transform="translate(0.30969907,-0.59392243)">
    <g
       id="g10"
       transform="matrix(0.35277777,0,0,-0.35277777,-28.893024,262.11782)"
       style="fill:#6f42c1;fill-opacity:1">
      <g
         id="g12"
         clip-path="url(#clipPath16)"
         style="fill:#6f42c1;fill-opacity:1">
        <g
           id="g18"
           transform="translate(230.0724,672.9974)"
           style="fill:#6f42c1;fill-opacity:1">
          <path
             d="M 0,0 C 5.763,5.76 9.388,13.079 10.492,21.002 L -7.315,19.987 c -0.958,-2.919 -2.592,-5.595 -4.83,-7.829 -3.597,-3.595 -8.714,-5.656 -14.039,-5.656 -0.475,0 -0.946,0.022 -1.416,0.054 L -10.814,-7.525 C -6.839,-5.709 -3.178,-3.184 0,0"
             style="fill:#6f42c1;fill-opacity:1;fill-rule:nonzero;stroke:none"
             id="path20" />
        </g>
        <g
           id="g22"
           transform="translate(189.8149,682.8265)"
           style="fill:#6f42c1;fill-opacity:1">
          <path
             d="m 0,0 7.422,-21.529 c 1.777,-0.256 3.587,-0.388 5.42,-0.388 5.407,0 10.631,1.158 15.4,3.342 L 11.573,-4.521 C 7.256,-4.258 3.163,-2.656 0,0"
             style="fill:#6f42c1;fill-opacity:1;fill-rule:nonzero;stroke:none"
             id="path24" />
        </g>
        <g
           id="g26"
           transform="translate(239.6912,699.7941)"
           style="fill:#6f42c1;fill-opacity:1">
          <path
             d="M 0,0 C 0,1.051 -0.053,2.093 -0.139,3.128 L -31.754,31.775 -37.25,19.871 c 0.072,0 0.143,0.005 0.215,0.005 5.308,-0.001 10.286,-2.067 14.017,-5.819 3.764,-3.758 5.837,-8.747 5.837,-14.049 0.001,-2.76 -0.565,-5.432 -1.632,-7.891 l 18.194,1.139 C -0.215,-4.541 0,-2.287 0,0"
             style="fill:#6f42c1;fill-opacity:1;fill-rule:nonzero;stroke:none"
             id="path28" />
        </g>
        <g
           id="g30"
           transform="translate(241.439,702.4833)"
           style="fill:#6f42c1;fill-opacity:1">
          <path
             d="m 0,0 c -0.634,8.878 -4.391,17.144 -10.758,23.507 -4.334,4.337 -9.552,7.462 -15.245,9.214 l -5.645,-3.636 z"
             style="fill:#6f42c1;fill-opacity:1;fill-rule:nonzero;stroke:none"
             id="path32" />
        </g>
        <g
           id="g34"
           transform="translate(214.6134,737.4191)"
           style="fill:#6f42c1;fill-opacity:1">
          <path
             d="m 0,0 c -3.872,1.35 -7.982,2.058 -12.201,2.057 -0.293,0 -0.583,-0.014 -0.874,-0.021 l 6.154,-5.25 z"
             style="fill:#6f42c1;fill-opacity:1;fill-rule:nonzero;stroke:none"
             id="path36" />
        </g>
        <g
           id="g38"
           transform="translate(197.4727,741.3276)"
           style="fill:#6f42c1;fill-opacity:1">
          <path
             d="M 0,0 C -1.829,-0.014 -3.636,-0.159 -5.412,-0.433 L 5.579,-5.265 Z"
             style="fill:#6f42c1;fill-opacity:1;fill-rule:nonzero;stroke:none"
             id="path40" />
        </g>
        <g
           id="g42"
           transform="translate(249.3456,689.0625)"
           style="fill:#6f42c1;fill-opacity:1">
          <path
             d="M 0,0 C 0.69,1.327 1.276,2.689 1.757,4.078 L -5.979,-1.995 Z"
             style="fill:#6f42c1;fill-opacity:1;fill-rule:nonzero;stroke:none"
             id="path44" />
        </g>
        <g
           id="g46"
           transform="translate(91.8825,728.4815)"
           style="fill:#6f42c1;fill-opacity:1">
          <path
             d="m 0,0 c -4.974,-4.974 -8.351,-11.113 -9.896,-17.796 l 19.105,1.923 c 0.816,1.34 1.794,2.596 2.93,3.741 1.85,1.85 4.105,3.289 6.584,4.253 L 18.355,10 C 11.459,8.524 5.116,5.104 0,0"
             style="fill:#6f42c1;fill-opacity:1;fill-rule:nonzero;stroke:none"
             id="path48" />
        </g>
        <g
           id="g50"
           transform="translate(135.8356,733.5687)"
           style="fill:#6f42c1;fill-opacity:1">
          <path
             d="m 0,0 c -4.731,2.139 -9.923,3.272 -15.311,3.272 -4.084,0 -8.066,-0.668 -11.831,-1.935 l 1.779,-18.014 c 2.99,1.7 6.47,2.634 10.049,2.634 0.462,0 0.921,-0.021 1.379,-0.052 l 13.34,8.809 z"
             style="fill:#6f42c1;fill-opacity:1;fill-rule:nonzero;stroke:none"
             id="path52" />
        </g>
        <g
           id="g54"
           transform="translate(152.4104,720.5437)"
           style="fill:#6f42c1;fill-opacity:1">
          <path
             d="m 0,0 -20.944,-4.183 c 1.111,-0.713 2.143,-1.536 3.07,-2.465 l 23.637,-22.704 13.446,10.905 z"
             style="fill:#6f42c1;fill-opacity:1;fill-rule:nonzero;stroke:none"
             id="path56" />
        </g>
        <g
           id="g58"
           transform="translate(175.6195,725.1786)"
           style="fill:#6f42c1;fill-opacity:1">
          <path
             d="M 0,0 -9.751,-9.365 0.595,-19.356 32.456,6.482 Z"
             style="fill:#6f42c1;fill-opacity:1;fill-rule:nonzero;stroke:none"
             id="path60" />
        </g>
        <g
           id="g62"
           transform="translate(153.4917,687.3956)"
           style="fill:#6f42c1;fill-opacity:1">
          <path
             d="M 0,0 -8.596,8.3 -18.754,-1.467 C -21.631,-4.34 -25.25,-6.23 -29.197,-6.971 l 5.212,-12.48 z"
             style="fill:#6f42c1;fill-opacity:1;fill-rule:nonzero;stroke:none"
             id="path64" />
        </g>
        <g
           id="g66"
           transform="translate(198.4204,736.5929)"
           style="fill:#6f42c1;fill-opacity:1">
          <path
             d="M 0,0 C -8.303,-0.94 -15.993,-4.629 -21.991,-10.637 L -22.87,-11.48 9.516,-5.024 Z"
             style="fill:#6f42c1;fill-opacity:1;fill-rule:nonzero;stroke:none"
             id="path68" />
        </g>
        <g
           id="g70"
           transform="translate(146.5601,726.1619)"
           style="fill:#6f42c1;fill-opacity:1">
          <path
             d="m 0,0 c -6.904,6.889 -16.148,10.679 -26.035,10.679 -0.121,0 -0.24,-0.008 -0.361,-0.009 l -7.007,-18.672 c 2.311,0.888 4.812,1.365 7.365,1.365 3.969,0 7.811,-1.137 10.989,-3.191 l 20.937,4.173 z"
             style="fill:#6f42c1;fill-opacity:1;fill-rule:nonzero;stroke:none"
             id="path72" />
        </g>
        <g
           id="g74"
           transform="translate(81.0236,699.8123)"
           style="fill:#6f42c1;fill-opacity:1">
          <path
             d="M 0,0 C 0,-1.904 0.145,-3.784 0.425,-5.631 L 18.121,6.054 c 0.885,2.771 2.38,5.333 4.418,7.525 L 4.419,17.568 C 1.534,12.231 0,6.233 0,0"
             style="fill:#6f42c1;fill-opacity:1;fill-rule:nonzero;stroke:none"
             id="path76" />
        </g>
        <g
           id="g78"
           transform="translate(93.1199,674.8502)"
           style="fill:#6f42c1;fill-opacity:1">
          <path
             d="m 0,0 c 4.045,-4.049 8.865,-7.038 14.123,-8.844 l 1.088,18.522 c -1.103,0.718 -2.132,1.546 -3.06,2.479 -3.76,3.749 -5.831,8.742 -5.831,14.059 0,2.486 0.464,4.907 1.342,7.17 L -10.714,22.974 C -9.971,14.287 -6.238,6.224 0,0"
             style="fill:#6f42c1;fill-opacity:1;fill-rule:nonzero;stroke:none"
             id="path80" />
        </g>
        <g
           id="g82"
           transform="translate(137.8335,663.8812)"
           style="fill:#6f42c1;fill-opacity:1">
          <path
             d="M 0,0 C 4.902,1.838 9.404,4.715 13.224,8.534 L 14.533,9.789 -4.028,2.827 Z"
             style="fill:#6f42c1;fill-opacity:1;fill-rule:nonzero;stroke:none"
             id="path84" />
        </g>
        <g
           id="g86"
           transform="translate(188.6557,685.7363)"
           style="fill:#6f42c1;fill-opacity:1">
          <path
             d="m 0,0 -3.291,3.16 -17.836,-6.69 9.107,-8.748 c 6.075,-6.09 13.988,-9.757 22.571,-10.534 L 3.541,-2.754 C 2.25,-1.977 1.056,-1.057 0,0"
             style="fill:#6f42c1;fill-opacity:1;fill-rule:nonzero;stroke:none"
             id="path88" />
        </g>
        <g
           id="g90"
           transform="translate(176.1837,705.8525)"
           style="fill:#6f42c1;fill-opacity:1">
          <path
             d="m 0,0 2.052,-1.981 10.217,9.827 c 3.865,3.849 8.911,5.972 14.204,5.972 0.086,0 0.171,-0.005 0.256,-0.007 l 5.024,11.905 z"
             style="fill:#6f42c1;fill-opacity:1;fill-rule:nonzero;stroke:none"
             id="path92" />
        </g>
        <g
           id="g94"
           transform="translate(147.3474,674.2158)"
           style="fill:#6f42c1;fill-opacity:1">
          <path
             d="M 0,0 9.928,9.526 6.079,13.243 -19.067,-7.081 Z"
             style="fill:#6f42c1;fill-opacity:1;fill-rule:nonzero;stroke:none"
             id="path96" />
        </g>
        <g
           id="g98"
           transform="translate(171.5817,702.133)"
           style="fill:#6f42c1;fill-opacity:1">
          <path
             d="m 0,0 -13.467,-10.885 9.786,-9.4 17.887,6.643 z"
             style="fill:#6f42c1;fill-opacity:1;fill-rule:nonzero;stroke:none"
             id="path100" />
        </g>
        <g
           id="g102"
           transform="translate(125.4313,661.2406)"
           style="fill:#6f42c1;fill-opacity:1">
          <path
             d="M 0,0 C 1.633,0.215 3.241,0.539 4.816,0.965 L 4.075,4.85 Z"
             style="fill:#6f42c1;fill-opacity:1;fill-rule:nonzero;stroke:none"
             id="path104" />
        </g>
        <g
           id="g106"
           transform="translate(108.1838,713.0943)"
           style="fill:#6f42c1;fill-opacity:1">
          <path
             d="m 0,0 c 0.213,-1.634 0.534,-3.241 0.958,-4.818 l 3.885,0.736 z"
             style="fill:#6f42c1;fill-opacity:1;fill-rule:nonzero;stroke:none"
             id="path108" />
        </g>
        <g
           id="g110"
           transform="translate(203.2482,685.7618)"
           style="fill:#6f42c1;fill-opacity:1">
          <path
             d="m 0,0 c -1.645,0.082 -3.285,0.054 -4.911,-0.081 l 0.029,-3.955 z"
             style="fill:#6f42c1;fill-opacity:1;fill-rule:nonzero;stroke:none"
             id="path112" />
        </g>
        <g
           id="g114"
           transform="translate(244.697,692.1904)"
           style="fill:#6f42c1;fill-opacity:1">
          <path
             d="M 0,0 C 1.048,1.82 1.991,3.674 2.827,5.555 L -0.821,7.01 Z"
             style="fill:#6f42c1;fill-opacity:1;fill-rule:nonzero;stroke:none"
             id="path116" />
        </g>
        <g
           id="g118"
           transform="translate(120.5249,662.7645)"
           style="fill:#6f42c1;fill-opacity:1">
          <path
             d="M 0,0 C 1.655,0 3.292,0.118 4.906,0.331 L 8.982,5.18 3.833,17.671 c -1.261,-0.241 -2.555,-0.367 -3.87,-0.367 -3.985,0 -7.867,1.187 -11.083,3.329 L -12.282,2.083 C -8.387,0.716 -4.249,0 0,0"
             style="fill:#6f42c1;fill-opacity:1;fill-rule:nonzero;stroke:none"
             id="path120" />
        </g>
      </g>
    </g>
  </g>
</svg>
