<?xml version="1.0" encoding="iso-8859-1"?>
<!-- Uploaded to: SVG Repo, www.svgrepo.com, Generator: SVG Repo Mixer Tools -->
<svg fill="#000000" version="1.1" id="Layer_1" xmlns="http://www.w3.org/2000/svg" xmlns:xlink="http://www.w3.org/1999/xlink" 
	 viewBox="0 0 496 496" xml:space="preserve">
<g>
	<g>
		<g>
			<path d="M152,200c-35.288,0-64,28.712-64,64c0,35.288,28.712,64,64,64s64-28.712,64-64C216,228.712,187.288,200,152,200z
				 M152,312c-26.472,0-48-21.528-48-48s21.528-48,48-48s48,21.528,48,48S178.472,312,152,312z"/>
			<path d="M160,232.408V224h-16v8.408c-9.12,1.856-16,9.936-16,19.592c0,11.032,8.968,20,20,20h8c2.2,0,4,1.8,4,4s-1.8,4-4,4h-8
				c-2.2,0-4-1.8-4-4v-4h-16v4c0,9.664,6.88,17.736,16,19.592V304h16v-8.408c9.12-1.856,16-9.936,16-19.592c0-11.032-8.968-20-20-20
				h-8c-2.2,0-4-1.8-4-4s1.8-4,4-4h8c2.2,0,4,1.8,4,4v4h16v-4C176,242.336,169.12,234.264,160,232.408z"/>
			<path d="M312,191.592V200h16v-8.408c9.12-1.856,16-9.936,16-19.592c0-11.032-8.968-20-20-20h-8c-2.2,0-4-1.8-4-4s1.8-4,4-4h8
				c2.2,0,4,1.8,4,4v4h16v-4c0-9.664-6.88-17.736-16-19.592V120h-16v8.408c-9.12,1.856-16,9.936-16,19.592c0,11.032,8.968,20,20,20
				h8c2.2,0,4,1.8,4,4s-1.8,4-4,4h-8c-2.2,0-4-1.8-4-4v-4h-16v4C296,181.664,302.88,189.736,312,191.592z"/>
			<path d="M208,128c35.288,0,64-28.712,64-64S243.288,0,208,0c-35.288,0-64,28.712-64,64S172.712,128,208,128z M208,16
				c26.472,0,48,21.528,48,48s-21.528,48-48,48s-48-21.528-48-48S181.528,16,208,16z"/>
			<path d="M200,95.592V104h16v-8.408c9.12-1.856,16-9.936,16-19.592c0-11.032-8.968-20-20-20h-8c-2.2,0-4-1.8-4-4s1.8-4,4-4h8
				c2.2,0,4,1.8,4,4v4h16v-4c0-9.664-6.88-17.736-16-19.592V24h-16v8.408c-9.12,1.856-16,9.936-16,19.592c0,11.032,8.968,20,20,20h8
				c2.2,0,4,1.8,4,4s-1.8,4-4,4h-8c-2.2,0-4-1.8-4-4v-4h-16v4C184,85.664,190.88,93.736,200,95.592z"/>
			<path d="M464,287.968h-24V216c0-22.056-17.944-40-40-40h-18.104c1.328-5.128,2.104-10.464,2.104-16c0-35.288-28.712-64-64-64
				c-35.288,0-64,28.712-64,64c0,5.536,0.776,10.872,2.104,16H96c-22.056,0-40,17.944-40,40v192c0,22.056,17.944,40,40,40h72v32h-16
				v16h192v-16h-16v-32h72c22.056,0,40-17.944,40-40v-40.048l9.12,0.016L464,363.04v12.928h32v-16h-16v-72h16v-16h-32V287.968z
				 M320,112c26.472,0,48,21.528,48,48s-21.528,48-48,48s-48-21.528-48-48S293.528,112,320,112z M312,480H184v-32h128V480z M424,408
				c0,13.232-10.768,24-24,24H96c-13.232,0-24-10.768-24-24v-8h352V408z M424,384H72V216c0-13.232,10.768-24,24-24h168.656
				c11.088,19.096,31.712,32,55.344,32c23.632,0,44.256-12.904,55.344-32H400c13.232,0,24,10.768,24,24v70.472l-19.736-13.16
				L336.84,249.4c-6.424-2.256-13.304-1.792-19.368,1.28c-6.072,3.08-10.504,8.368-12.472,14.872
				c-3.424,11.28,1.648,23.48,12.056,28.992l17.312,9.2l-25.184,0.08l-10.344-25.888c-3.4-8.496-11.504-13.976-20.656-13.976
				c-7.144,0-13.896,3.464-18.064,9.264c-4.168,5.808-5.296,13.312-3.016,20.088l2.416,7.176l-17.552-9.592
				c-5.576-3.04-12.248-3.632-18.28-1.624c-6.048,2.024-11.016,6.504-13.648,12.312c-5.136,11.344-0.416,24.552,10.76,30.064
				l39.488,19.488l81.968,16.672L424,367.936V384z M291.968,303.88l-14.408,0.048l-5.296-15.72c-0.648-1.928-0.336-3.984,0.848-5.64
				c2.688-3.76,9.16-2.944,10.864,1.32L291.968,303.88z M464,346.192l-17.464,5.776h-101.92l-78.184-15.64l-38.544-19.016
				c-3.384-1.672-4.824-5.68-3.256-9.12c0.808-1.792,2.28-3.12,4.144-3.736c1.848-0.64,3.824-0.456,5.536,0.496l27.48,15.016h75.936
				l31.56-15.784l-44.72-23.776c-3.664-1.944-5.456-6.24-4.24-10.216c0.696-2.296,2.256-4.168,4.4-5.248
				c2.144-1.08,4.56-1.232,6.832-0.456l64.68,22.696l25.176,16.784H464V346.192z"/>
			<rect x="32" y="88" width="16" height="16"/>
			<rect x="9.392" y="97.377" transform="matrix(-0.7071 -0.7071 0.7071 -0.7071 -44.8234 192.1871)" width="16" height="16"/>
			<rect y="120" width="16" height="16"/>
			<rect x="9.386" y="142.62" transform="matrix(-0.7071 -0.7071 0.7071 -0.7071 -76.8237 269.4178)" width="16" height="16"/>
			<rect x="32" y="152" width="16" height="16"/>
			<rect x="54.621" y="142.625" transform="matrix(0.7071 0.7071 -0.7071 0.7071 124.8492 -0.1629)" width="16" height="16"/>
			<rect x="64" y="120" width="16" height="16"/>
			<rect x="54.626" y="97.374" transform="matrix(0.7071 0.7071 -0.7071 0.7071 92.8535 -13.4202)" width="16" height="16"/>
			<rect x="448" y="16" width="16" height="16"/>
			<rect x="425.359" y="25.387" transform="matrix(0.7071 0.7071 -0.7071 0.7071 150.5362 -296.6519)" width="16" height="16"/>
			<rect x="416" y="48" width="16" height="16"/>
			<rect x="425.362" y="70.606" transform="matrix(-0.7071 -0.7071 0.7071 -0.7071 684.2113 440.622)" width="16" height="16"/>
			<rect x="448" y="80" width="16" height="16"/>
			<rect x="470.616" y="70.6" transform="matrix(0.7071 0.7071 -0.7071 0.7071 195.7619 -315.4109)" width="16" height="16"/>
			<rect x="480" y="48" width="16" height="16"/>
			<rect x="470.621" y="25.381" transform="matrix(0.7071 0.7071 -0.7071 0.7071 163.7888 -328.6589)" width="16" height="16"/>
		</g>
	</g>
</g>
</svg>