<?xml version="1.0" encoding="iso-8859-1"?>
<!-- Uploaded to: SVG Repo, www.svgrepo.com, Generator: SVG Repo Mixer Tools -->
<svg fill="#000000" version="1.1" id="Layer_1" >
<g>
	<g>
		<g>
			<path d="M456,44H40C17.944,44,0,61.944,0,84v256c0,22.056,17.944,40,40,40h296v40c0,17.648,14.352,32,32,32s32-14.352,32-32v-40
				h56c22.056,0,40-17.944,40-40V84C496,61.944,478.056,44,456,44z M48,364h-8c-13.232,0-24-10.768-24-24V84
				c0-13.232,10.768-24,24-24h8V364z M336,332H96V156h240V332z M336,113.336V140H96V92h256L336,113.336z M384,420
				c0,8.824-7.176,16-16,16c-8.824,0-16-7.176-16-16v-16h32V420z M384,388h-32V132h32V388z M354,116l14-18.664L382,116H354z
				 M416,364h-16V113.336l-32-42.672L364,76H80v272h256v16H64V60h352V364z M480,340c0,13.232-10.768,24-24,24h-24V60h24
				c13.232,0,24,10.768,24,24V340z"/>
			<rect x="448" y="172" width="16" height="80"/>
			<rect x="112" y="108" width="16" height="16"/>
			<rect x="144" y="108" width="16" height="16"/>
			<rect x="176" y="108" width="16" height="16"/>
			<path d="M310.936,316l19.512-136.576l-56.784,37.848L240,175.192l-33.664,42.08l-56.792-37.848L169.064,316H310.936z
				 M209.656,238.728L240,200.808l30.336,37.92l39.208-26.152L297.064,300H182.936l-12.488-87.424L209.656,238.728z"/>
			<rect x="192" y="268" width="64" height="16"/>
			<rect x="272" y="268" width="16" height="16"/>
		</g>
	</g>
</g>
</svg>